STARTFONT 2.1
FONT -thai-dbthaitext-bold-i-normal--39-280-100-100-p-117-tis620-0
SIZE 28 100 100
FONTBOUNDINGBOX 52 45 -13 -16
STARTPROPERTIES 25
FOUNDRY "thai"
FAMILY_NAME "dbthaitext"
WEIGHT_NAME "bold"
SLANT "i"
SETWIDTH_NAME "normal"
ADD_STYLE_NAME ""
PIXEL_SIZE 39
POINT_SIZE 280
RESOLUTION_X 100
RESOLUTION_Y 100
SPACING "p"
AVERAGE_WIDTH 117
CHARSET_REGISTRY "tis620"
CHARSET_ENCODING "0"
FONT "-thai-dbthaitext-bold-i-normal--39-280-100-100-p-117-tis620-0"
COPYRIGHT "Typeface (c) The Monotype Corporation plc. Data (c) The Monotype Corporation plc/Type Solutions Inc. 1990-1992. All Rights Reserved"
RAW_PIXELSIZE 1000
RAW_POINTSIZE 723
RAW_ASCENT 738
RAW_DESCENT 408
RAW_AVERAGE_WIDTH 3023
FACE_NAME "DBThaiTextBoldItalic"
DEFAULT_CHAR 0
FONT_ASCENT 29
FONT_DESCENT 16
ENDPROPERTIES
CHARS 190
STARTCHAR space
ENCODING 32
SWIDTH 257 0
DWIDTH 10 0
BBX 0 0 0 0
BITMAP
ENDCHAR
STARTCHAR exclam
ENCODING 33
SWIDTH 180 0
DWIDTH 7 0
BBX 8 16 0 0
BITMAP
07
0f
0e
0e
0e
0c
1c
18
18
18
10
00
00
70
70
e0
ENDCHAR
STARTCHAR quotedbl
ENCODING 34
SWIDTH 257 0
DWIDTH 10 0
BBX 9 6 1 10
BITMAP
7380
e380
e700
c700
c600
8400
ENDCHAR
STARTCHAR numbersign
ENCODING 35
SWIDTH 308 0
DWIDTH 12 0
BBX 15 15 -1 0
BITMAP
00ce
01cc
0198
0398
1ffc
1ffc
1660
0e60
0ce0
1cc8
7ff0
fff0
b300
6700
e600
ENDCHAR
STARTCHAR dollar
ENCODING 36
SWIDTH 308 0
DWIDTH 12 0
BBX 14 20 -1 -3
BITMAP
0060
00f0
07f8
0ffc
1edc
1c9c
1c80
1f80
1fc0
0fe0
03f0
02f0
f6f0
f4e0
f5e0
ffc0
7f00
0800
1800
1000
ENDCHAR
STARTCHAR percent
ENCODING 37
SWIDTH 514 0
DWIDTH 20 0
BBX 17 16 1 0
BITMAP
040180
1f0300
7f8600
638c00
c39800
e33000
ff6000
7ec000
318f00
033f80
067b80
0c6380
08e380
18e700
30fe00
607c00
ENDCHAR
STARTCHAR ampersand
ENCODING 38
SWIDTH 411 0
DWIDTH 16 0
BBX 14 16 0 0
BITMAP
00e0
03f0
0730
0630
0e30
07e0
07c0
0780
1f8c
3bd8
63f8
e1f0
e1e0
e3e0
fff0
7e70
ENDCHAR
STARTCHAR apostrophe
ENCODING 39
SWIDTH 128 0
DWIDTH 5 0
BBX 4 6 1 10
BITMAP
70
f0
e0
e0
c0
80
ENDCHAR
STARTCHAR parenleft
ENCODING 40
SWIDTH 180 0
DWIDTH 7 0
BBX 10 20 0 -4
BITMAP
01c0
0380
0700
0e00
0c00
1c00
3800
3800
7000
7000
7000
e000
e000
e000
e000
e000
e000
e000
e000
6000
ENDCHAR
STARTCHAR parenright
ENCODING 41
SWIDTH 180 0
DWIDTH 7 0
BBX 10 20 -3 -4
BITMAP
0180
0180
01c0
01c0
01c0
01c0
01c0
01c0
01c0
0180
0380
0380
0700
0700
0e00
0c00
1c00
3800
3000
6000
ENDCHAR
STARTCHAR asterisk
ENCODING 42
SWIDTH 231 0
DWIDTH 9 0
BBX 8 8 0 8
BITMAP
0c
0c
7f
7e
38
6c
cc
48
ENDCHAR
STARTCHAR plus
ENCODING 43
SWIDTH 334 0
DWIDTH 13 0
BBX 12 10 0 0
BITMAP
0380
0380
0700
0710
7ff0
ffe0
8e00
0c00
1c00
1c00
ENDCHAR
STARTCHAR comma
ENCODING 44
SWIDTH 205 0
DWIDTH 8 0
BBX 5 6 1 -2
BITMAP
10
78
78
30
20
c0
ENDCHAR
STARTCHAR minus
ENCODING 45
SWIDTH 180 0
DWIDTH 7 0
BBX 7 3 0 5
BITMAP
7e
fe
fc
ENDCHAR
STARTCHAR period
ENCODING 46
SWIDTH 154 0
DWIDTH 6 0
BBX 3 3 1 0
BITMAP
60
e0
c0
ENDCHAR
STARTCHAR slash
ENCODING 47
SWIDTH 154 0
DWIDTH 6 0
BBX 11 16 -2 0
BITMAP
0060
0040
00c0
0080
0100
0300
0200
0600
0400
0800
1800
1000
3000
6000
4000
c000
ENDCHAR
STARTCHAR 0
ENCODING 48
SWIDTH 308 0
DWIDTH 12 0
BBX 13 16 0 0
BITMAP
01f0
07f8
0ff8
1e78
1c38
3878
3878
7870
70f0
70f0
f0e0
f1e0
e1c0
ff80
ff00
7c00
ENDCHAR
STARTCHAR 1
ENCODING 49
SWIDTH 308 0
DWIDTH 12 0
BBX 8 16 3 0
BITMAP
03
07
0e
7e
fe
0c
1c
1c
1c
38
38
38
70
70
70
e0
ENDCHAR
STARTCHAR 2
ENCODING 50
SWIDTH 308 0
DWIDTH 12 0
BBX 14 16 -2 0
BITMAP
00f0
03fc
07fc
071c
0e1c
0e1c
0038
0070
00e0
03c0
0700
1e00
3800
7fe0
7fe0
ffc0
ENDCHAR
STARTCHAR 3
ENCODING 51
SWIDTH 308 0
DWIDTH 12 0
BBX 13 16 -1 0
BITMAP
01f0
07f8
0ff8
1c38
1c38
0070
00e0
03c0
07e0
01e0
00e0
e0e0
e1c0
f380
ff00
3e00
ENDCHAR
STARTCHAR 4
ENCODING 52
SWIDTH 308 0
DWIDTH 12 0
BBX 13 16 -1 0
BITMAP
0078
00f8
01f0
01f0
0370
06e0
0ce0
18e0
31c0
61d0
7fe0
ffe0
8380
0380
0700
0700
ENDCHAR
STARTCHAR 5
ENCODING 53
SWIDTH 308 0
DWIDTH 12 0
BBX 14 16 -1 0
BITMAP
001c
03fc
07f8
0400
0c00
0c80
1fe0
3fe0
38f0
0060
00e0
00e0
e1c0
e3c0
ff80
7c00
ENDCHAR
STARTCHAR 6
ENCODING 54
SWIDTH 308 0
DWIDTH 12 0
BBX 13 16 0 0
BITMAP
01f0
07f8
0e78
1c38
1800
3800
3fc0
7fe0
78e0
70e0
e0e0
e0e0
e1c0
e380
ff80
7e00
ENDCHAR
STARTCHAR 7
ENCODING 55
SWIDTH 308 0
DWIDTH 12 0
BBX 14 16 0 0
BITMAP
003c
1ffc
3ff8
3870
00e0
01c0
0380
0780
0f00
0e00
1c00
3c00
3800
7000
7000
e000
ENDCHAR
STARTCHAR 8
ENCODING 56
SWIDTH 308 0
DWIDTH 12 0
BBX 13 16 -1 0
BITMAP
01e0
07f8
0e38
0c18
1838
1830
1ce0
0fc0
3fe0
70e0
60e0
e0e0
e1c0
f3c0
ff00
3c00
ENDCHAR
STARTCHAR 9
ENCODING 57
SWIDTH 308 0
DWIDTH 12 0
BBX 13 16 -1 0
BITMAP
01e0
07f0
0ff8
1c38
1838
3838
3878
38f0
3ff0
3ff0
1ee0
00e0
e1c0
f380
ff00
7c00
ENDCHAR
STARTCHAR colon
ENCODING 58
SWIDTH 180 0
DWIDTH 7 0
BBX 6 12 1 0
BITMAP
0c
1c
18
00
00
00
00
00
00
60
e0
c0
ENDCHAR
STARTCHAR semicolon
ENCODING 59
SWIDTH 205 0
DWIDTH 8 0
BBX 7 14 0 -2
BITMAP
06
0e
0e
08
00
00
00
00
10
70
70
30
20
c0
ENDCHAR
STARTCHAR less
ENCODING 60
SWIDTH 334 0
DWIDTH 13 0
BBX 13 10 0 0
BITMAP
0038
01f0
0ff0
7f80
7c00
fc00
7f00
1fc0
03c0
00c0
ENDCHAR
STARTCHAR equal
ENCODING 61
SWIDTH 334 0
DWIDTH 13 0
BBX 13 10 0 0
BITMAP
0018
3ff8
3ff0
3000
0000
0000
00e0
7fe0
ffe0
e000
ENDCHAR
STARTCHAR greater
ENCODING 62
SWIDTH 334 0
DWIDTH 13 0
BBX 13 10 -1 0
BITMAP
1c00
1f00
1fc0
07f8
00f8
01f0
0fe0
7f00
f000
8000
ENDCHAR
STARTCHAR question
ENCODING 63
SWIDTH 334 0
DWIDTH 13 0
BBX 11 16 2 0
BITMAP
0fc0
3fe0
7fe0
70e0
e0e0
01c0
03c0
0780
0e00
1c00
3800
3800
0000
7000
7000
7000
ENDCHAR
STARTCHAR at
ENCODING 64
SWIDTH 540 0
DWIDTH 21 0
BBX 22 20 0 -3
BITMAP
001fc0
007ff0
00f0f8
01c038
07001c
0e001c
1c3f8c
38678c
31c30c
618718
630618
e70c30
c71c70
c73ce0
e7ef80
e18e00
700000
780800
3ff800
0ff000
ENDCHAR
STARTCHAR A
ENCODING 65
SWIDTH 411 0
DWIDTH 16 0
BBX 15 16 -2 0
BITMAP
001e
003e
007e
00fe
00ee
01ce
03ce
038e
078e
0f3e
0ffe
1ffe
380e
380e
700e
f00e
ENDCHAR
STARTCHAR B
ENCODING 66
SWIDTH 411 0
DWIDTH 16 0
BBX 16 16 -1 0
BITMAP
07fc
07fe
0f0f
0e07
0e07
1e0e
1e1c
1ffc
3ffc
381c
381c
781c
7838
7078
fff0
ffc0
ENDCHAR
STARTCHAR C
ENCODING 67
SWIDTH 411 0
DWIDTH 16 0
BBX 16 16 0 0
BITMAP
00fc
07fe
0fbf
1e0f
3c07
3800
7800
7000
f000
f000
e01c
f03c
f078
f9f0
7fe0
3f00
ENDCHAR
STARTCHAR D
ENCODING 68
SWIDTH 411 0
DWIDTH 16 0
BBX 17 16 -1 0
BITMAP
07fe00
07ff00
0e0f80
0e0780
0e0780
1e0780
1c0780
1c0700
3c0f00
380f00
381e00
781c00
783c00
70f800
ffe000
ffc000
ENDCHAR
STARTCHAR E
ENCODING 69
SWIDTH 385 0
DWIDTH 15 0
BBX 17 18 -1 -1
BITMAP
000780
07ff80
07ff00
0f0000
0e0000
0e0000
0e0000
1e0c00
1ffc00
1ffc00
3c0000
380000
380000
780000
703800
7ff800
fff000
f00000
ENDCHAR
STARTCHAR F
ENCODING 70
SWIDTH 334 0
DWIDTH 13 0
BBX 17 17 -1 0
BITMAP
000780
07ff80
07ff00
0f0000
0f0000
0e0000
1e0000
1e1c00
1ffc00
3ff800
3c0000
380000
780000
780000
700000
f00000
e00000
ENDCHAR
STARTCHAR G
ENCODING 71
SWIDTH 437 0
DWIDTH 17 0
BBX 16 16 1 0
BITMAP
00fc
03fe
0f1f
1c07
3807
3800
7000
7006
60fe
e0fc
e01c
e01c
f038
f8f8
7fd8
1f08
ENDCHAR
STARTCHAR H
ENCODING 72
SWIDTH 411 0
DWIDTH 16 0
BBX 18 16 -1 0
BITMAP
0701c0
0703c0
0f0380
0e0380
0e0780
1e0700
1fff00
1fff00
380e00
381e00
381e00
781c00
701c00
703c00
f03800
e03800
ENDCHAR
STARTCHAR I
ENCODING 73
SWIDTH 154 0
DWIDTH 6 0
BBX 8 16 -1 0
BITMAP
07
0f
0e
0e
1e
1c
1c
3c
38
38
38
78
70
70
f0
e0
ENDCHAR
STARTCHAR J
ENCODING 74
SWIDTH 308 0
DWIDTH 12 0
BBX 14 16 -1 0
BITMAP
001c
003c
0038
0038
0078
0070
0070
00f0
00e0
00e0
70e0
e1c0
e1c0
f380
ff00
7e00
ENDCHAR
STARTCHAR K
ENCODING 75
SWIDTH 411 0
DWIDTH 16 0
BBX 18 16 -1 0
BITMAP
0703c0
060f00
0e1e00
0e3c00
0e7000
1ee000
1dc000
1fc000
3fc000
3de000
39e000
70e000
70f000
707000
f07800
e03800
ENDCHAR
STARTCHAR L
ENCODING 76
SWIDTH 334 0
DWIDTH 13 0
BBX 12 17 -1 -1
BITMAP
0780
0700
0f00
0f00
0e00
0e00
1e00
1c00
1c00
3c00
3800
3800
7800
7070
7ff0
ffe0
f000
ENDCHAR
STARTCHAR M
ENCODING 77
SWIDTH 462 0
DWIDTH 18 0
BBX 21 16 -1 0
BITMAP
07c0f8
07c1f8
0fc1f0
0ec3f0
0fc3f0
1fc6e0
1dcfe0
1d8de0
3d9dc0
399bc0
39bbc0
79b380
71e780
73e780
f3c700
e3cf00
ENDCHAR
STARTCHAR N
ENCODING 78
SWIDTH 411 0
DWIDTH 16 0
BBX 18 16 -1 0
BITMAP
0701c0
0783c0
0f8380
0f8380
0f8780
1dc700
1dc700
1dcf00
3cee00
38ee00
38fe00
787c00
707c00
707c00
f07800
e03800
ENDCHAR
STARTCHAR O
ENCODING 79
SWIDTH 437 0
DWIDTH 17 0
BBX 16 16 1 0
BITMAP
00f8
03fe
0ffe
1e0f
3807
3007
7007
6007
e006
e00e
e00c
e01c
e038
7ff0
7fc0
1f00
ENDCHAR
STARTCHAR P
ENCODING 80
SWIDTH 385 0
DWIDTH 15 0
BBX 16 16 -1 0
BITMAP
07fe
07ff
0f0f
0e07
0e07
1e0e
1c0e
1c1c
3ff8
3ff0
3800
7800
7000
7000
f000
e000
ENDCHAR
STARTCHAR Q
ENCODING 81
SWIDTH 437 0
DWIDTH 17 0
BBX 17 17 0 -1
BITMAP
00fc00
03ff00
0fff00
1e0f80
3c0780
380780
780780
700780
f00700
f00f00
f04e00
f1fe00
f0fc00
7ff800
7ffc00
1f9800
001000
ENDCHAR
STARTCHAR R
ENCODING 82
SWIDTH 411 0
DWIDTH 16 0
BBX 17 16 -1 0
BITMAP
07ff00
07ff80
0f0780
0e0380
0e0380
1e0700
1c0e00
1ffc00
3ff800
383c00
381c00
781c00
703c00
703800
f03800
e03800
ENDCHAR
STARTCHAR S
ENCODING 83
SWIDTH 385 0
DWIDTH 15 0
BBX 15 16 0 0
BITMAP
01f8
07fc
0e1e
1c0e
180e
1c00
1f80
1ff0
0ff8
00f8
0038
e038
e038
f0f0
7fc0
3f00
ENDCHAR
STARTCHAR T
ENCODING 84
SWIDTH 334 0
DWIDTH 13 0
BBX 14 17 2 0
BITMAP
003c
7ffc
fff8
c700
0f00
0f00
0e00
1e00
1e00
1c00
1c00
3c00
3800
3800
7800
7000
7000
ENDCHAR
STARTCHAR U
ENCODING 85
SWIDTH 411 0
DWIDTH 16 0
BBX 17 16 0 0
BITMAP
0e0380
1e0780
1e0700
1c0f00
3c0f00
3c0e00
381e00
781e00
781c00
703c00
f03c00
f07800
f07800
fff000
7fe000
3f0000
ENDCHAR
STARTCHAR V
ENCODING 86
SWIDTH 385 0
DWIDTH 15 0
BBX 14 16 3 0
BITMAP
f03c
f038
e070
e0f0
e0e0
e1c0
e3c0
e380
e700
e700
ee00
fc00
f800
f800
f000
e000
ENDCHAR
STARTCHAR W
ENCODING 87
SWIDTH 540 0
DWIDTH 21 0
BBX 21 16 2 0
BITMAP
707878
70f070
70f0f0
71f0e0
71b1c0
f3f1c0
f37380
e77380
e67700
ee6e00
ec6e00
f87c00
f87800
f07800
f0f000
e0f000
ENDCHAR
STARTCHAR X
ENCODING 88
SWIDTH 385 0
DWIDTH 15 0
BBX 18 16 -2 0
BITMAP
0383c0
038780
038f00
03ce00
01dc00
01f800
01f000
00e000
01e000
03e000
07e000
0ef000
1c7000
3c7000
787000
f03800
ENDCHAR
STARTCHAR Y
ENCODING 89
SWIDTH 385 0
DWIDTH 15 0
BBX 14 16 3 0
BITMAP
f03c
f078
70f0
71e0
71c0
7b80
7f80
3f00
3e00
3c00
3800
3800
7800
7000
7000
f000
ENDCHAR
STARTCHAR Z
ENCODING 90
SWIDTH 334 0
DWIDTH 13 0
BBX 18 18 -2 -1
BITMAP
0003c0
07ffc0
07ff80
0fff80
000f00
001e00
003c00
007000
00e000
01c000
038000
0f0000
1e0000
3c0000
781c00
7ff800
fff800
f00000
ENDCHAR
STARTCHAR bracketleft
ENCODING 91
SWIDTH 180 0
DWIDTH 7 0
BBX 12 20 -2 -4
BITMAP
01f0
03e0
0380
0300
0700
0700
0600
0e00
0e00
0c00
1c00
1c00
1800
3800
3800
3000
7000
7000
7c00
f800
ENDCHAR
STARTCHAR backslash
ENCODING 92
SWIDTH 154 0
DWIDTH 6 0
BBX 2 16 2 0
BITMAP
c0
c0
c0
c0
c0
c0
c0
c0
c0
c0
c0
c0
c0
c0
c0
c0
ENDCHAR
STARTCHAR bracketright
ENCODING 93
SWIDTH 180 0
DWIDTH 7 0
BBX 12 20 -3 -4
BITMAP
03f0
03e0
00e0
00e0
00c0
01c0
01c0
0180
0380
0380
0300
0700
0700
0600
0e00
0e00
0c00
1c00
7c00
fc00
ENDCHAR
STARTCHAR asciicircum
ENCODING 94
SWIDTH 334 0
DWIDTH 13 0
BBX 10 9 0 6
BITMAP
0380
0780
07c0
0dc0
1dc0
19c0
31c0
70c0
e0c0
ENDCHAR
STARTCHAR underscore
ENCODING 95
SWIDTH 308 0
DWIDTH 12 0
BBX 14 2 -1 -5
BITMAP
fffc
fffc
ENDCHAR
STARTCHAR grave
ENCODING 96
SWIDTH 180 0
DWIDTH 7 0
BBX 7 7 0 3
BITMAP
1c
7e
7e
fe
fc
f8
70
ENDCHAR
STARTCHAR a
ENCODING 97
SWIDTH 308 0
DWIDTH 12 0
BBX 12 12 0 0
BITMAP
07e0
0ff0
1c70
3870
00e0
1fe0
3fe0
70e0
e1c0
e3c0
ffc0
f120
ENDCHAR
STARTCHAR b
ENCODING 98
SWIDTH 334 0
DWIDTH 13 0
BBX 14 16 -1 0
BITMAP
0700
0700
0f00
0e00
0ef8
1dfc
1ffc
1e3c
3c3c
3c3c
3838
7838
7870
78f0
ffe0
0780
ENDCHAR
STARTCHAR c
ENCODING 99
SWIDTH 308 0
DWIDTH 12 0
BBX 12 12 0 0
BITMAP
07e0
0ff0
1ff0
3870
7070
7000
f000
e000
e1c0
f3c0
ff80
3e00
ENDCHAR
STARTCHAR d
ENCODING 100
SWIDTH 334 0
DWIDTH 13 0
BBX 15 16 0 0
BITMAP
000e
001c
001c
001c
07b8
1ff8
3cf8
3870
7070
7070
e0e0
e0e0
e1e0
f3c0
ffc0
7840
ENDCHAR
STARTCHAR e
ENCODING 101
SWIDTH 308 0
DWIDTH 12 0
BBX 12 12 0 0
BITMAP
07c0
0fe0
1cf0
3870
7070
7ff0
ffe0
e000
e000
f1c0
ff80
7c00
ENDCHAR
STARTCHAR f
ENCODING 102
SWIDTH 180 0
DWIDTH 7 0
BBX 10 16 -1 0
BITMAP
03c0
07c0
0f00
0e00
3f80
3f00
1c00
1c00
3800
3800
3800
7000
7000
7000
f000
e000
ENDCHAR
STARTCHAR g
ENCODING 103
SWIDTH 334 0
DWIDTH 13 0
BBX 15 17 -1 -5
BITMAP
01ee
03ee
0ffc
0e3c
1c1c
1818
3838
3038
3070
38f0
3ff0
1f60
04e0
00e0
e1c0
ff80
3e00
ENDCHAR
STARTCHAR h
ENCODING 104
SWIDTH 334 0
DWIDTH 13 0
BBX 14 16 -1 0
BITMAP
0700
0700
0f00
0e00
0ef8
1ffc
1ffc
1e3c
3c38
3c78
3878
7870
70f0
70f0
f0e0
e1e0
ENDCHAR
STARTCHAR i
ENCODING 105
SWIDTH 154 0
DWIDTH 6 0
BBX 8 17 -1 0
BITMAP
01
07
0e
00
00
0e
1c
1c
1c
38
38
38
70
70
70
f0
e0
ENDCHAR
STARTCHAR j
ENCODING 106
SWIDTH 154 0
DWIDTH 6 0
BBX 11 22 -3 -5
BITMAP
0020
00e0
01c0
0000
0000
03c0
0380
0380
0380
0700
0700
0700
0e00
0e00
0e00
1c00
1c00
1c00
1800
7800
f000
e000
ENDCHAR
STARTCHAR k
ENCODING 107
SWIDTH 308 0
DWIDTH 12 0
BBX 14 16 -1 0
BITMAP
0700
0700
0e00
0e00
0e38
1c70
1ce0
1dc0
3b80
3f80
3f80
7b80
73c0
73c0
e1c0
e1c0
ENDCHAR
STARTCHAR l
ENCODING 108
SWIDTH 154 0
DWIDTH 6 0
BBX 8 16 -1 0
BITMAP
07
0f
0e
0e
1e
1c
1c
1c
38
38
38
70
70
70
f0
e0
ENDCHAR
STARTCHAR m
ENCODING 109
SWIDTH 514 0
DWIDTH 20 0
BBX 20 12 -1 0
BITMAP
0ef1e0
1ffff0
1ffff0
1c38f0
3c78e0
3870e0
3870e0
78f1c0
70e1c0
70e1c0
f1e380
e1c380
ENDCHAR
STARTCHAR n
ENCODING 110
SWIDTH 334 0
DWIDTH 13 0
BBX 14 12 -1 0
BITMAP
0ef8
1ffc
1f3c
1e3c
3c3c
3c38
3878
7878
7070
70f0
f0f0
e0e0
ENDCHAR
STARTCHAR o
ENCODING 111
SWIDTH 334 0
DWIDTH 13 0
BBX 13 12 0 0
BITMAP
03e0
0ff0
1e78
3c78
7878
7078
f070
f0f0
f0e0
f1e0
7f80
3e00
ENDCHAR
STARTCHAR p
ENCODING 112
SWIDTH 334 0
DWIDTH 13 0
BBX 15 17 -1 -5
BITMAP
073c
07fe
07fe
0f0e
0e0e
0e0e
1c0e
1c1c
1c3c
3e78
3ff0
3fe0
7080
7000
7000
e000
e000
ENDCHAR
STARTCHAR q
ENCODING 113
SWIDTH 334 0
DWIDTH 13 0
BBX 14 17 1 -5
BITMAP
07dc
0ffc
1ff8
3c78
7878
7070
f070
e0f0
e0e0
f3e0
ffe0
7fc0
39c0
01c0
0380
0380
0780
ENDCHAR
STARTCHAR r
ENCODING 114
SWIDTH 231 0
DWIDTH 9 0
BBX 11 12 -1 0
BITMAP
0e60
1fc0
1fc0
1e00
3c00
3800
3800
7800
7000
7000
f000
e000
ENDCHAR
STARTCHAR s
ENCODING 115
SWIDTH 308 0
DWIDTH 12 0
BBX 12 12 0 0
BITMAP
07c0
0ff0
1c70
3870
3c00
3fc0
1fe0
03e0
e0e0
f1c0
ff80
3e00
ENDCHAR
STARTCHAR t
ENCODING 116
SWIDTH 180 0
DWIDTH 7 0
BBX 8 15 0 0
BITMAP
0e
0e
1c
3f
7e
38
38
38
78
70
70
70
e0
f8
f0
ENDCHAR
STARTCHAR u
ENCODING 117
SWIDTH 334 0
DWIDTH 13 0
BBX 14 12 0 0
BITMAP
1c1c
3c38
3c38
3838
3870
7870
70f0
70e0
f0e0
f3e0
ffc0
7c00
ENDCHAR
STARTCHAR v
ENCODING 118
SWIDTH 308 0
DWIDTH 12 0
BBX 12 12 2 0
BITMAP
f0f0
f0e0
f1c0
e3c0
e380
e700
ee00
ee00
fc00
f800
f800
f000
ENDCHAR
STARTCHAR w
ENCODING 119
SWIDTH 437 0
DWIDTH 17 0
BBX 18 12 1 0
BITMAP
71e3c0
f1e380
f3e780
f7e700
f7ce00
eede00
eedc00
fcfc00
f8f800
f9f000
f1f000
e1e000
ENDCHAR
STARTCHAR x
ENCODING 120
SWIDTH 308 0
DWIDTH 12 0
BBX 15 12 -1 0
BITMAP
0f1e
0f3c
0778
0770
07e0
03c0
0780
0fc0
1fc0
3dc0
79e0
f0e0
ENDCHAR
STARTCHAR y
ENCODING 121
SWIDTH 308 0
DWIDTH 12 0
BBX 15 17 -1 -5
BITMAP
0e0e
0e1c
0e38
0e38
0e70
0e60
0ee0
0ec0
0f80
0f80
0f00
0e00
0e00
0c00
7800
f000
e000
ENDCHAR
STARTCHAR z
ENCODING 122
SWIDTH 282 0
DWIDTH 11 0
BBX 14 14 -2 -1
BITMAP
0004
0ffc
0ff8
1078
00f0
01e0
0380
0700
1e00
3c00
7810
7fe0
ffc0
8000
ENDCHAR
STARTCHAR braceleft
ENCODING 123
SWIDTH 231 0
DWIDTH 9 0
BBX 10 20 0 -4
BITMAP
01c0
03c0
0600
0600
0e00
0c00
0c00
1c00
1800
7000
7000
3000
3000
7000
6000
6000
e000
e000
f000
f000
ENDCHAR
STARTCHAR bar
ENCODING 124
SWIDTH 154 0
DWIDTH 6 0
BBX 8 20 -1 -4
BITMAP
03
03
06
06
06
04
0c
0c
08
18
18
10
30
30
30
20
60
60
40
c0
ENDCHAR
STARTCHAR braceright
ENCODING 125
SWIDTH 231 0
DWIDTH 9 0
BBX 10 20 -2 -4
BITMAP
0380
03c0
00c0
01c0
0180
0180
0380
0300
0300
0380
0380
0600
0e00
0c00
0c00
1c00
1800
1800
7800
f000
ENDCHAR
STARTCHAR asciitilde
ENCODING 126
SWIDTH 334 0
DWIDTH 13 0
BBX 11 4 1 3
BITMAP
3800
7e60
c7c0
0380
ENDCHAR
STARTCHAR exclamdown
ENCODING 161
SWIDTH 360 0
DWIDTH 14 0
BBX 13 14 0 0
BITMAP
03e0
0ff0
1c38
3c18
0e18
1c18
1030
3030
3030
6060
6060
6060
e0c0
c0c0
ENDCHAR
STARTCHAR cent
ENCODING 162
SWIDTH 360 0
DWIDTH 14 0
BBX 13 14 1 0
BITMAP
0400
3f38
7fb0
cdb0
db70
ff60
2e60
0ce0
1ce0
18c0
19c0
39c0
ff80
ff00
ENDCHAR
STARTCHAR sterling
ENCODING 163
SWIDTH 385 0
DWIDTH 15 0
BBX 15 14 1 0
BITMAP
0440
1fc6
36ec
78ec
fddc
cf98
df18
ff38
0738
0630
0e70
0c70
3fe0
3fc0
ENDCHAR
STARTCHAR currency
ENCODING 164
SWIDTH 360 0
DWIDTH 14 0
BBX 12 14 1 0
BITMAP
07c0
0fe0
1870
3030
6f30
4f30
d160
7e60
7c60
60c0
60c0
60c0
e180
c180
ENDCHAR
STARTCHAR yen
ENCODING 165
SWIDTH 360 0
DWIDTH 14 0
BBX 12 13 1 0
BITMAP
0fe0
1ff0
2030
6f30
4f30
d160
7e60
7c60
60c0
60c0
60c0
e180
c180
ENDCHAR
STARTCHAR brokenbar
ENCODING 166
SWIDTH 462 0
DWIDTH 18 0
BBX 17 13 1 0
BITMAP
1fc180
37e300
78c300
fdc300
cf8600
db0600
f30e00
0fcc00
3fec00
367c00
6e3800
7c3800
783800
ENDCHAR
STARTCHAR section
ENCODING 167
SWIDTH 282 0
DWIDTH 11 0
BBX 10 13 1 0
BITMAP
03c0
06c0
04c0
0780
c780
e180
e300
6300
6300
7600
3600
3e00
3800
ENDCHAR
STARTCHAR diaeresis
ENCODING 168
SWIDTH 334 0
DWIDTH 13 0
BBX 11 13 2 0
BITMAP
1f80
7fe0
e0e0
40e0
38e0
7cc0
cdc0
fdc0
7d80
1f80
1f80
1f00
0e00
ENDCHAR
STARTCHAR copyright
ENCODING 169
SWIDTH 385 0
DWIDTH 15 0
BBX 13 14 1 0
BITMAP
03e0
07f0
0c38
1818
0810
3830
7830
8820
d8f0
fbf8
3ce8
38d8
70d0
60e0
ENDCHAR
STARTCHAR ordfeminine
ENCODING 170
SWIDTH 360 0
DWIDTH 14 0
BBX 14 14 2 0
BITMAP
000c
3e18
7b70
c9c0
cbe0
f660
2c60
0cc0
18c0
18c0
1980
3980
ff80
ff00
ENDCHAR
STARTCHAR guillemotleft
ENCODING 171
SWIDTH 385 0
DWIDTH 15 0
BBX 16 14 1 0
BITMAP
0483
1fc6
36dc
78f0
fcf8
c998
db38
f730
0630
0670
0e60
0c60
3fc0
3fc0
ENDCHAR
STARTCHAR notsign
ENCODING 172
SWIDTH 488 0
DWIDTH 19 0
BBX 18 13 1 0
BITMAP
0fe0c0
1c7180
383180
1e3180
186300
306300
306300
60c600
71e600
7bf600
cadc00
df9c00
e30c00
ENDCHAR
STARTCHAR hyphen
ENCODING 173
SWIDTH 488 0
DWIDTH 19 0
BBX 18 19 2 -6
BITMAP
0fe0c0
1c7180
383180
1e3180
186300
306300
306300
60c600
70c600
78c600
c98e00
dbfc00
f3f800
000000
079800
0d9800
093000
0fe000
0fc000
ENDCHAR
STARTCHAR registered
ENCODING 174
SWIDTH 411 0
DWIDTH 16 0
BBX 16 19 0 -6
BITMAP
00fe
0387
0783
03c3
0387
0606
0606
0e0e
3c0c
7c0c
4c1c
c818
7118
01b8
3f30
7fb0
c7f0
fde0
f8e0
ENDCHAR
STARTCHAR macron
ENCODING 175
SWIDTH 411 0
DWIDTH 16 0
BBX 16 19 0 -6
BITMAP
00fe
0387
0783
03c3
0383
0606
0606
0606
1c0c
7c0c
4c0c
4818
7218
0218
1630
7cb0
cdf0
dfe0
f4e0
ENDCHAR
STARTCHAR degree
ENCODING 176
SWIDTH 308 0
DWIDTH 12 0
BBX 18 20 -3 -7
BITMAP
007fc0
01e7c0
03f800
007e00
000e00
01ee00
036e00
037c00
07fc00
03bc00
003800
003800
003800
000000
06f000
07b000
3de000
7de000
dbe000
fd8000
ENDCHAR
STARTCHAR plusminus
ENCODING 177
SWIDTH 462 0
DWIDTH 18 0
BBX 17 14 1 0
BITMAP
048000
1fc780
36cf80
78db80
fdbb00
cf3300
db6300
f7c600
07c600
078600
0f0c00
0e0c00
0e0c00
1c1c00
ENDCHAR
STARTCHAR twosuperior
ENCODING 178
SWIDTH 488 0
DWIDTH 19 0
BBX 18 13 1 0
BITMAP
0fe0c0
1ff180
203180
473180
4d2100
d12300
de6300
ce4200
cce600
59fe00
72dc00
e28c00
c30c00
ENDCHAR
STARTCHAR threesuperior
ENCODING 179
SWIDTH 488 0
DWIDTH 19 0
BBX 18 13 1 0
BITMAP
0fe0c0
1c7180
383180
1e3180
186300
306300
306300
60ef80
70df80
78e680
c9ce80
d98d80
618f00
ENDCHAR
STARTCHAR acute
ENCODING 180
SWIDTH 360 0
DWIDTH 14 0
BBX 13 14 0 0
BITMAP
07e0
0ff0
1c78
3838
77b8
6fb8
fdb0
fff0
ef70
ee60
7ce0
78e0
f0c0
e1c0
ENDCHAR
STARTCHAR mu
ENCODING 181
SWIDTH 360 0
DWIDTH 14 0
BBX 13 13 1 0
BITMAP
0ff0
1ff8
3038
67b8
6fb8
f9b0
fff0
ef70
ee60
7ce0
78e0
f0c0
e1c0
ENDCHAR
STARTCHAR paragraph
ENCODING 182
SWIDTH 360 0
DWIDTH 14 0
BBX 13 14 1 0
BITMAP
03e0
0ff0
1c38
3c38
1e38
1c38
3030
3070
7070
7860
7ce0
cce0
d8c0
71c0
ENDCHAR
STARTCHAR periodcentered
ENCODING 183
SWIDTH 411 0
DWIDTH 16 0
BBX 14 13 1 0
BITMAP
3c7c
6cfc
ccdc
fd98
7bb8
1b38
3630
3c70
3c70
7860
7060
60e0
e0e0
ENDCHAR
STARTCHAR cedilla
ENCODING 184
SWIDTH 308 0
DWIDTH 12 0
BBX 14 13 -1 0
BITMAP
07fc
0c7c
1f00
3fe0
0060
0c60
0c60
1c60
18c0
18c0
38c0
ff80
ff80
ENDCHAR
STARTCHAR onesuperior
ENCODING 185
SWIDTH 385 0
DWIDTH 15 0
BBX 13 13 1 0
BITMAP
3c18
6c30
4c30
7830
7860
3860
3060
31f0
77f0
6cd0
71d0
e1f0
c1e0
ENDCHAR
STARTCHAR masculine
ENCODING 186
SWIDTH 385 0
DWIDTH 15 0
BBX 15 13 0 0
BITMAP
1e06
120c
220c
3e0c
1c18
0c18
1c18
1c18
1830
1830
3830
ffe0
ffc0
ENDCHAR
STARTCHAR guillemotright
ENCODING 187
SWIDTH 385 0
DWIDTH 15 0
BBX 17 18 -1 0
BITMAP
000380
000300
000300
000300
000600
1e0600
120600
320c00
3e0c00
1e0c00
0c1800
0c1800
1c1800
183000
183000
383000
ffe000
ffc000
ENDCHAR
STARTCHAR onequarter
ENCODING 188
SWIDTH 360 0
DWIDTH 14 0
BBX 15 13 0 0
BITMAP
0786
0d8c
198c
1f0c
1e18
3918
3398
37b8
7df0
78f0
7070
e060
c060
ENDCHAR
STARTCHAR onehalf
ENCODING 189
SWIDTH 360 0
DWIDTH 14 0
BBX 17 18 -1 0
BITMAP
000380
000300
000300
000700
000600
078600
0d8e00
198c00
1f0c00
1e1c00
389800
399800
37b800
7cf000
78f000
707000
e07000
c06000
ENDCHAR
STARTCHAR threequarters
ENCODING 190
SWIDTH 411 0
DWIDTH 16 0
BBX 16 13 1 0
BITMAP
3c43
6c46
cce6
fdee
7bec
1b6c
367c
3c7c
3c78
7878
7078
e070
e070
ENDCHAR
STARTCHAR questiondown
ENCODING 191
SWIDTH 411 0
DWIDTH 16 0
BBX 18 18 0 0
BITMAP
0001c0
000180
000180
000380
000300
3c2300
6e6700
ece600
fdee00
79ee00
1b6c00
177c00
3e7c00
3c7800
787800
707800
707800
e07000
ENDCHAR
STARTCHAR Agrave
ENCODING 192
SWIDTH 411 0
DWIDTH 16 0
BBX 16 13 -1 0
BITMAP
01fe
038f
0f87
03c7
0387
0606
0e0e
0e0e
3c0c
7c1c
cc1c
d818
7038
ENDCHAR
STARTCHAR Aacute
ENCODING 193
SWIDTH 385 0
DWIDTH 15 0
BBX 16 13 -1 0
BITMAP
0f03
1b06
1b06
1f0e
1f0c
060c
0e1c
3f98
7fd8
7cf8
dcf0
f870
f070
ENDCHAR
STARTCHAR Acircumflex
ENCODING 194
SWIDTH 360 0
DWIDTH 14 0
BBX 14 13 0 0
BITMAP
078c
0c98
1c98
1f18
1230
1830
0e30
1e30
3060
6060
6060
ffc0
ff80
ENDCHAR
STARTCHAR Atilde
ENCODING 195
SWIDTH 308 0
DWIDTH 12 0
BBX 12 14 1 0
BITMAP
0600
1ff0
71f0
fe00
ff80
0380
0180
0180
0380
0f00
1f00
3300
3600
1c00
ENDCHAR
STARTCHAR Adiaeresis
ENCODING 196
SWIDTH 360 0
DWIDTH 14 0
BBX 13 21 2 -7
BITMAP
03e0
0ff0
1c38
3c38
1e38
1c38
3030
3030
6070
7860
7c60
cce0
d8c0
f0c0
01c0
0180
0180
0380
0300
0300
0700
ENDCHAR
STARTCHAR Aring
ENCODING 197
SWIDTH 360 0
DWIDTH 14 0
BBX 13 14 0 0
BITMAP
07e0
0ff0
1c78
3038
0038
1f38
3bf0
31f0
61f0
7de0
fde0
cde0
d9c0
71c0
ENDCHAR
STARTCHAR AE
ENCODING 198
SWIDTH 411 0
DWIDTH 16 0
BBX 16 20 0 -7
BITMAP
01fe
038f
0787
03c7
0387
0606
0e0e
0e0e
3c0c
7c1c
cc1c
d818
f038
0038
0030
0070
0070
0060
00e0
00e0
ENDCHAR
STARTCHAR Ccedilla
ENCODING 199
SWIDTH 308 0
DWIDTH 12 0
BBX 10 14 1 0
BITMAP
1f80
3fc0
71c0
c0c0
40c0
00c0
0180
0180
0180
0f00
1f00
1300
1200
1c00
ENDCHAR
STARTCHAR Egrave
ENCODING 200
SWIDTH 360 0
DWIDTH 14 0
BBX 15 14 1 0
BITMAP
0186
0ffe
1c7c
3038
67f0
6fb0
f970
7f60
7e60
70e0
70e0
60c0
e1c0
c1c0
ENDCHAR
STARTCHAR Eacute
ENCODING 201
SWIDTH 385 0
DWIDTH 15 0
BBX 18 13 -1 0
BITMAP
1f0300
1b0600
330600
3f0ec0
1efcc0
07bd80
0dff00
0dfe00
1c1800
183800
183800
fff000
ffe000
ENDCHAR
STARTCHAR Ecircumflex
ENCODING 202
SWIDTH 360 0
DWIDTH 14 0
BBX 15 15 0 0
BITMAP
0004
07ee
0ff8
1c78
3078
00f8
1ff0
3bf0
31f0
61e0
79e0
fde0
cdc0
d9c0
71c0
ENDCHAR
STARTCHAR Ediaeresis
ENCODING 203
SWIDTH 385 0
DWIDTH 15 0
BBX 14 13 1 0
BITMAP
3c7c
6c6c
cccc
fcf8
79f0
1bb8
3730
3c70
3870
7060
70e0
e0e0
e0c0
ENDCHAR
STARTCHAR Igrave
ENCODING 204
SWIDTH 437 0
DWIDTH 17 0
BBX 18 15 1 0
BITMAP
000e80
0012c0
381380
489e00
c88c00
f9cc00
7bcc00
3bd800
36f800
7cf800
787000
707000
607000
c06000
c06000
ENDCHAR
STARTCHAR Iacute
ENCODING 205
SWIDTH 360 0
DWIDTH 14 0
BBX 13 14 0 0
BITMAP
07e0
0ff8
1c38
1038
0038
1e38
3630
2630
7c70
7860
6060
e0e0
ffc0
ff80
ENDCHAR
STARTCHAR Icircumflex
ENCODING 206
SWIDTH 360 0
DWIDTH 14 0
BBX 15 14 0 0
BITMAP
07e4
0ffe
103c
1ff8
0ff0
0030
1c70
2460
6460
7860
70c0
c0c0
ffc0
ff80
ENDCHAR
STARTCHAR Idiaeresis
ENCODING 207
SWIDTH 334 0
DWIDTH 13 0
BBX 11 13 2 0
BITMAP
3c60
64c0
ccc0
f9c0
f3c0
ff80
7d80
0380
0300
0300
0600
1e00
3000
ENDCHAR
STARTCHAR ETH
ENCODING 208
SWIDTH 257 0
DWIDTH 10 0
BBX 12 13 0 0
BITMAP
0e30
1260
1260
1fc0
0f00
0000
0000
0000
3980
4980
8b00
fe00
7800
ENDCHAR
STARTCHAR Ntilde
ENCODING 209
SWIDTH 0 0
DWIDTH 0 0
BBX 12 5 -9 16
BITMAP
7820
7870
d8e0
f7c0
7f00
ENDCHAR
STARTCHAR Ograve
ENCODING 210
SWIDTH 282 0
DWIDTH 11 0
BBX 10 14 1 0
BITMAP
0f80
3fc0
71c0
e1c0
21c0
0180
0380
0380
0300
0700
0700
0600
0e00
0e00
ENDCHAR
STARTCHAR Oacute
ENCODING 211
SWIDTH 282 0
DWIDTH 11 0
BBX 14 21 -4 0
BITMAP
3800
7800
c800
d800
f000
0000
0000
00f8
03fc
071c
060c
021c
0018
0018
0038
0030
0030
0070
0060
0060
00e0
ENDCHAR
STARTCHAR Ocircumflex
ENCODING 212
SWIDTH 0 0
DWIDTH 0 0
BBX 10 6 -13 15
BITMAP
0f80
1fc0
60c0
7fc0
83c0
0040
ENDCHAR
STARTCHAR Otilde
ENCODING 213
SWIDTH 51 0
DWIDTH 2 0
BBX 12 8 -12 15
BITMAP
0030
0030
0fe0
3de0
60e0
7fc0
03c0
0040
ENDCHAR
STARTCHAR Odiaeresis
ENCODING 214
SWIDTH 0 0
DWIDTH 0 0
BBX 12 8 -13 15
BITMAP
0060
00f0
0fb0
3de0
60c0
7fc0
03c0
0040
ENDCHAR
STARTCHAR multiply
ENCODING 215
SWIDTH 51 0
DWIDTH 2 0
BBX 12 8 -12 15
BITMAP
01b0
01b0
0fe0
3de0
60e0
7fc0
03c0
0040
ENDCHAR
STARTCHAR Ooblique
ENCODING 216
SWIDTH 0 0
DWIDTH 0 0
BBX 6 8 -7 -10
BITMAP
7c
ec
cc
f8
78
18
30
30
ENDCHAR
STARTCHAR Ugrave
ENCODING 217
SWIDTH 0 0
DWIDTH 0 0
BBX 9 8 -10 -10
BITMAP
7980
cb00
8b00
fb00
7200
3600
3e00
1800
ENDCHAR
STARTCHAR Uacute
ENCODING 218
SWIDTH 0 0
DWIDTH 0 0
BBX 3 3 -5 -5
BITMAP
60
e0
c0
ENDCHAR
STARTCHAR Ucircumflex
ENCODING 219
SWIDTH 0 0
DWIDTH 0 0
BBX 3 3 -5 -10
BITMAP
60
e0
c0
ENDCHAR
STARTCHAR Udiaeresis
ENCODING 220
SWIDTH 0 0
DWIDTH 0 0
BBX 1 1 0 0
BITMAP
00
ENDCHAR
STARTCHAR Yacute
ENCODING 221
SWIDTH 0 0
DWIDTH 0 0
BBX 1 1 0 0
BITMAP
00
ENDCHAR
STARTCHAR THORN
ENCODING 222
SWIDTH 0 0
DWIDTH 0 0
BBX 1 1 0 0
BITMAP
00
ENDCHAR
STARTCHAR ssharp
ENCODING 223
SWIDTH 411 0
DWIDTH 16 0
BBX 16 19 -1 -1
BITMAP
0010
0030
07fc
07fe
0f7f
0e67
0e47
1ece
1efc
1ffc
3ffc
39fc
399c
791c
7b38
73f8
fff0
ffc0
0600
ENDCHAR
STARTCHAR agrave
ENCODING 224
SWIDTH 180 0
DWIDTH 7 0
BBX 6 13 0 0
BITMAP
0c
18
18
18
30
30
70
70
78
fc
c8
d8
70
ENDCHAR
STARTCHAR aacute
ENCODING 225
SWIDTH 334 0
DWIDTH 13 0
BBX 12 13 0 0
BITMAP
1c30
1860
1860
3860
30c0
30c0
70c0
61c0
79e0
f9f0
cb20
db60
71c0
ENDCHAR
STARTCHAR acircumflex
ENCODING 226
SWIDTH 231 0
DWIDTH 9 0
BBX 12 24 0 0
BITMAP
0780
1ff0
3ce0
0e00
0700
0600
0600
0600
0e00
0c00
0c00
1c00
1800
1800
3800
3000
3000
7000
6000
7800
f800
c800
f800
e000
ENDCHAR
STARTCHAR atilde
ENCODING 227
SWIDTH 231 0
DWIDTH 9 0
BBX 9 24 0 0
BITMAP
0f00
1f80
3d80
3f80
6f00
7f00
0700
0600
0e00
0e00
0c00
1c00
1c00
1800
3800
3000
3000
7000
6000
7c00
fc00
cc00
f800
7000
ENDCHAR
STARTCHAR adiaeresis
ENCODING 228
SWIDTH 257 0
DWIDTH 10 0
BBX 9 24 1 0
BITMAP
2380
7780
2780
2f00
6b00
7f00
7600
6600
0e00
0c00
0c00
1c00
1800
1800
3800
3000
3000
7000
6000
7800
7800
c800
f800
7000
ENDCHAR
STARTCHAR aring
ENCODING 229
SWIDTH 282 0
DWIDTH 11 0
BBX 10 21 2 -7
BITMAP
0f80
3fc0
71c0
e1c0
21c0
0180
0380
0380
0300
0700
0700
0600
0e00
0e00
0c00
1c00
1800
1800
3800
3000
3000
ENDCHAR
STARTCHAR ae
ENCODING 230
SWIDTH 385 0
DWIDTH 15 0
BBX 10 18 5 -5
BITMAP
1fc0
3fc0
60c0
f8c0
f980
c980
f180
2300
0300
0300
0600
0600
0600
0400
0c00
1800
7000
6000
ENDCHAR
STARTCHAR ccedilla
ENCODING 231
SWIDTH 0 0
DWIDTH 0 0
BBX 12 8 -12 15
BITMAP
0070
1fe0
7fc0
e180
ffc0
fec0
c780
4100
ENDCHAR
STARTCHAR egrave
ENCODING 232
SWIDTH 0 0
DWIDTH 0 0
BBX 3 5 -4 24
BITMAP
60
60
40
c0
c0
ENDCHAR
STARTCHAR eacute
ENCODING 233
SWIDTH 0 0
DWIDTH 0 0
BBX 9 6 -7 23
BITMAP
2000
7180
d300
f600
7c00
f800
ENDCHAR
STARTCHAR ecircumflex
ENCODING 234
SWIDTH 0 0
DWIDTH 0 0
BBX 10 5 -10 23
BITMAP
7e40
4ec0
e280
a500
ee00
ENDCHAR
STARTCHAR ediaeresis
ENCODING 235
SWIDTH 0 0
DWIDTH 0 0
BBX 6 5 -6 23
BITMAP
10
fc
fc
20
60
ENDCHAR
STARTCHAR igrave
ENCODING 236
SWIDTH 0 0
DWIDTH 0 0
BBX 9 7 -9 22
BITMAP
0180
0300
3e00
7000
f800
d000
f000
ENDCHAR
STARTCHAR iacute
ENCODING 237
SWIDTH 0 0
DWIDTH 0 0
BBX 6 5 -8 16
BITMAP
38
7c
cc
dc
f8
ENDCHAR
STARTCHAR icircumflex
ENCODING 238
SWIDTH 0 0
DWIDTH 0 0
BBX 6 6 -8 19
BITMAP
10
7c
ec
cc
f8
60
ENDCHAR
STARTCHAR idiaeresis
ENCODING 239
SWIDTH 334 0
DWIDTH 13 0
BBX 14 13 0 0
BITMAP
03f0
0ff8
180c
33cc
6fec
4fec
dfec
dfc8
df98
cf30
e060
7fc0
3f00
ENDCHAR
STARTCHAR eth
ENCODING 240
SWIDTH 360 0
DWIDTH 14 0
BBX 12 10 1 0
BITMAP
07c0
1fe0
3cf0
7070
6070
e070
e0e0
e1c0
7f80
3e00
ENDCHAR
STARTCHAR ntilde
ENCODING 241
SWIDTH 360 0
DWIDTH 14 0
BBX 12 11 1 -1
BITMAP
07c0
1fe0
38f0
7770
6f70
fb70
ff60
fee0
7dc0
3380
0300
ENDCHAR
STARTCHAR ograve
ENCODING 242
SWIDTH 437 0
DWIDTH 17 0
BBX 15 14 0 0
BITMAP
1800
3800
1800
3800
39dc
37fe
7e6e
7fce
7d8c
fd9c
ff1c
e018
fff8
7fe0
ENDCHAR
STARTCHAR oacute
ENCODING 243
SWIDTH 411 0
DWIDTH 16 0
BBX 14 10 1 0
BITMAP
0f38
1ffc
31cc
718c
618c
fb1c
fb18
cb18
fe30
f660
ENDCHAR
STARTCHAR ocircumflex
ENCODING 244
SWIDTH 411 0
DWIDTH 16 0
BBX 18 15 0 0
BITMAP
0000c0
0000c0
000180
000100
000300
07fe00
1ffc00
380000
638000
678000
cc8000
cf0000
e7c000
7ff000
381000
ENDCHAR
STARTCHAR otilde
ENCODING 245
SWIDTH 437 0
DWIDTH 17 0
BBX 18 15 1 0
BITMAP
0000c0
000080
00e180
01e100
032700
07fe00
1ff800
380000
638000
478000
cc8000
cf0000
e7c000
7ff000
383000
ENDCHAR
STARTCHAR odiaeresis
ENCODING 246
SWIDTH 308 0
DWIDTH 12 0
BBX 11 15 0 0
BITMAP
1800
3800
3800
3800
3800
3fc0
3fe0
30e0
00e0
38e0
7cc0
cdc0
fb80
ff00
7c00
ENDCHAR
STARTCHAR division
ENCODING 247
SWIDTH 437 0
DWIDTH 17 0
BBX 18 15 0 0
BITMAP
000080
0000c0
000180
000180
000300
000300
1ef300
3ff200
633600
433600
d82400
f86c00
c85800
f8f000
708000
ENDCHAR
STARTCHAR oslash
ENCODING 248
SWIDTH 411 0
DWIDTH 16 0
BBX 17 14 0 0
BITMAP
000180
000380
000300
000300
038700
1ffe00
3ffc00
703000
60f800
dcd800
def800
fef800
f7f000
73e000
ENDCHAR
STARTCHAR ugrave
ENCODING 249
SWIDTH 360 0
DWIDTH 14 0
BBX 16 14 0 0
BITMAP
0003
0003
0007
0006
0336
1ffe
3ffc
71c0
60e0
eee0
ffe0
f3e0
fe70
7840
ENDCHAR
STARTCHAR uacute
ENCODING 250
SWIDTH 1002 0
DWIDTH 39 0
BBX 39 2 0 5
BITMAP
fffffe0000
00007ffffe
ENDCHAR
STARTCHAR ucircumflex
ENCODING 251
SWIDTH 488 0
DWIDTH 19 0
BBX 20 2 0 5
BITMAP
fff000
007ff0
ENDCHAR
STARTCHAR udiaeresis
ENCODING 252
SWIDTH 0 0
DWIDTH 0 0
BBX 6 9 -7 -16
BITMAP
10
7c
ec
dc
f8
78
38
30
70
ENDCHAR
STARTCHAR yacute
ENCODING 253
SWIDTH 0 0
DWIDTH 0 0
BBX 9 9 -10 -16
BITMAP
1000
7980
cb00
9b00
f300
7200
3600
3c00
1800
ENDCHAR
STARTCHAR thorn
ENCODING 254
SWIDTH 411 0
DWIDTH 16 0
BBX 16 15 1 0
BITMAP
00f8
03fc
0c02
11f1
2311
4331
4361
8683
84c2
84c2
8c64
8008
4010
6e60
3f80
ENDCHAR
STARTCHAR ydiaeresis
ENCODING 255
SWIDTH 0 0
DWIDTH 0 0
BBX 1 1 0 0
BITMAP
00
ENDCHAR
ENDFONT
